<svg xmlns="http://www.w3.org/2000/svg" viewBox="0 0 1139.58 133.85"><defs><style>.cls-1{fill:#efda33;}</style></defs><g id="Layer_2" data-name="Layer 2"><g id="Layer_1-2" data-name="Layer 1"><path class="cls-1" d="M0,132.54V117.09H15.45v15.45Z"/><path d="M29.46,132.54V86.09H44.13v46.45Z"/><path d="M58.4,132.54V62.09H72.28v7.08c6.15-5.24,9.3-8.38,17.81-8.38,7.72,0,12.31,5.63,12.31,14.79v57H87.73V77.94c0-3.54-2.1-5.11-5.24-5.11s-6,2-9.43,4.45v55.26Z"/><path d="M116.54,132.54V0H131.2V68.12c5.76-4.72,8.77-7.33,15.19-7.33,9.17,0,14.93,6.8,14.93,19.64v33.78c0,12.83-5.76,19.64-14.93,19.64-7.33,0-10.87-2.49-15.71-8.64h-.26v7.33Zm14.66-14.4c2.88,2.1,5.5,3.67,8.38,3.67,3.93,0,7.07-2.1,7.07-11.4V84.23c0-9.3-3.14-11.4-7.07-11.4-2.88,0-5.5,1.57-8.38,3.67Z"/><path d="M219.46,100.07H188.55v10.21c0,8.12,2.88,11.53,8.12,11.53s8.12-3.41,8.12-11.53v-1.57h14.67c-.27,14.93-6.42,25.14-22.79,25.14-16.76,0-22.78-10.73-22.78-26.19V87c0-15.45,6-26.18,22.78-26.18S219.46,71.52,219.46,87ZM204.79,88V84.36c0-8.12-2.88-11.53-8.12-11.53s-8.12,3.41-8.12,11.53V88Z"/><path d="M259.52,81.61c-1-5.64-3.66-8.78-8.38-8.78-3.79,0-6.41,2-6.41,5.63,0,11,27.49,15.45,27.49,36.41,0,12.57-8.64,19-20.55,19-12.84,0-20.17-7.33-22.4-19.64l12.84-3.53c.91,5.89,3,11.13,9.69,11.13,3.8,0,6.55-2.23,6.55-6.16,0-12.18-27.5-16.76-27.5-36,0-11.13,8.64-18.85,19.64-18.85,11.52,0,19.25,7.72,21.47,18.72Z"/><path d="M278,74.14v-12h8.11v-19h14.67v19h9.82v12h-9.82v40.6c0,3.66,1.57,5.76,5,5.76h4.84v12.57a25.41,25.41,0,0,1-7.33.78c-11,0-17.16-5.1-17.16-15.84V74.14Z"/><path d="M343.46,74.14v-12h8.12v-19h14.66v19h9.82v12h-9.82v40.6c0,3.66,1.57,5.76,5,5.76h4.84v12.57a25.36,25.36,0,0,1-7.33.78c-11,0-17.15-5.1-17.15-15.84V74.14Z"/><path d="M430.41,100.07H399.5v10.21c0,8.12,2.88,11.53,8.12,11.53s8.12-3.41,8.12-11.53v-1.57h14.67c-.27,14.93-6.42,25.14-22.79,25.14-16.76,0-22.78-10.73-22.78-26.19V87c0-15.45,6-26.18,22.78-26.18S430.41,71.52,430.41,87ZM415.74,88V84.36c0-8.12-2.88-11.53-8.12-11.53s-8.12,3.41-8.12,11.53V88Z"/><path d="M473.88,86.19V84.36c0-8.12-2.88-11.53-8.12-11.53s-8.12,3.41-8.12,11.53v25.92c0,8.12,2.88,11.53,8.12,11.53s8.12-3.41,8.12-11.53v-4.45h14.66v1.83c0,15.46-6,26.19-22.78,26.19S443,123.12,443,107.66V87c0-15.45,6-26.18,22.79-26.18,16.5,0,22.52,10.34,22.78,25.4Z"/><path d="M501.9,132.54V38h14.66V68.64c5.37-4.71,8.51-7.85,17-7.85,7.72,0,12.31,5.63,12.31,14.79v57H531.23V77.94c0-3.54-2.1-5.11-5.24-5.11s-6,2-9.43,4.45v55.26Z"/><path d="M587.53,82.78c.79-14.27,9.82-22,23.57-22s21.35,6.28,21.35,19.11v45.18a50.58,50.58,0,0,0,.91,7.46h-14c-.13-2-.65-3.79-.78-5.5-5.5,4.46-10.09,6.81-17.16,6.81-9.95,0-14.93-6.81-14.93-15.84,0-15.45,10.22-24,31.3-31.95V81.87c0-5.9-2.36-9-7.2-9-6.68,0-8.12,3.93-8.38,10Zm30.25,14c-13.36,7.59-16.63,12.44-16.63,18.59,0,4.58,2.36,6.42,6.81,6.42,4.06,0,7.33-3,9.82-6.55Z"/><path d="M674,81.61c-1-5.64-3.66-8.78-8.38-8.78-3.79,0-6.41,2-6.41,5.63,0,11,27.49,15.45,27.49,36.41,0,12.57-8.64,19-20.55,19-12.84,0-20.17-7.33-22.4-19.64l12.84-3.53c.91,5.89,3,11.13,9.69,11.13,3.79,0,6.55-2.23,6.55-6.16,0-12.18-27.5-16.76-27.5-36,0-11.13,8.64-18.85,19.64-18.85,11.52,0,19.25,7.72,21.47,18.72Z"/><path d="M724.89,81.61c-1-5.64-3.67-8.78-8.38-8.78-3.8,0-6.42,2-6.42,5.63,0,11,27.5,15.45,27.5,36.41,0,12.57-8.64,19-20.56,19-12.83,0-20.16-7.33-22.39-19.64l12.83-3.53c.92,5.89,3,11.13,9.69,11.13,3.8,0,6.55-2.23,6.55-6.16,0-12.18-27.5-16.76-27.5-36,0-11.13,8.64-18.85,19.64-18.85,11.53,0,19.25,7.72,21.48,18.72Z"/><path d="M793.9,100.07H763v10.21c0,8.12,2.89,11.53,8.12,11.53s8.12-3.41,8.12-11.53v-1.57H793.9c-.27,14.93-6.42,25.14-22.79,25.14-16.76,0-22.78-10.73-22.78-26.19V87c0-15.45,6-26.18,22.78-26.18S793.9,71.52,793.9,87ZM779.23,88V84.36c0-8.12-2.88-11.53-8.12-11.53S763,76.24,763,84.36V88Z"/><path d="M834,81.61c-1-5.64-3.66-8.78-8.38-8.78-3.79,0-6.41,2-6.41,5.63,0,11,27.5,15.45,27.5,36.41,0,12.57-8.65,19-20.56,19-12.83,0-20.17-7.33-22.39-19.64l12.83-3.53c.92,5.89,3,11.13,9.69,11.13,3.8,0,6.55-2.23,6.55-6.16,0-12.18-27.5-16.76-27.5-36,0-11.13,8.64-18.85,19.64-18.85,11.52,0,19.25,7.72,21.47,18.72Z"/><path d="M884.9,81.61c-1-5.64-3.67-8.78-8.38-8.78-3.8,0-6.42,2-6.42,5.63,0,11,27.5,15.45,27.5,36.41,0,12.57-8.64,19-20.55,19-12.84,0-20.17-7.33-22.4-19.64l12.84-3.53c.91,5.89,3,11.13,9.69,11.13,3.79,0,6.54-2.23,6.54-6.16,0-12.18-27.5-16.76-27.5-36,0-11.13,8.65-18.85,19.65-18.85,11.52,0,19.25,7.72,21.47,18.72Z"/><path d="M938.33,132.54V77.94c0-3.54-2.23-5.11-5.11-5.11-3.14,0-6,2-9.43,4.45v55.26H909.13V62.09H923v7.08c6.15-5.24,9.29-8.38,16.23-8.38,7.34,0,9.69,2.61,12.84,8.38,7.07-6.81,11-8.38,16.36-8.38,9.17,0,13.75,5.63,13.75,14.79v57H967.53V77.94c0-3.54-2.36-5.11-5.24-5.11-3.14,0-6,2-9.3,4.45v55.26Z"/><path d="M1041.25,100.07h-30.91v10.21c0,8.12,2.89,11.53,8.12,11.53s8.12-3.41,8.12-11.53v-1.57h14.67c-.26,14.93-6.42,25.14-22.79,25.14-16.76,0-22.78-10.73-22.78-26.19V87c0-15.45,6-26.18,22.78-26.18s22.79,10.73,22.79,26.18Zm-14.67-12V84.36c0-8.12-2.88-11.53-8.12-11.53s-8.12,3.41-8.12,11.53V88Z"/><path d="M1054.6,132.54V62.09h13.88v7.08c6.16-5.24,9.3-8.38,17.81-8.38,7.73,0,12.31,5.63,12.31,14.79v57h-14.66V77.94c0-3.54-2.1-5.11-5.24-5.11s-6,2-9.43,4.45v55.26Z"/><path d="M1107,74.14v-12h8.12v-19h14.66v19h9.82v12h-9.82v40.6c0,3.66,1.58,5.76,5,5.76h4.84v12.57a25.36,25.36,0,0,1-7.33.78c-11,0-17.15-5.1-17.15-15.84V74.14Z"/></g></g></svg>